<svg width="20" height="21" viewBox="0 0 20 21" fill="none" xmlns="http://www.w3.org/2000/svg">
<g filter="url(#filter0_d)">
<path d="M0 2.5C0 1.39543 0.895431 0.5 2 0.5H18C19.1046 0.5 20 1.39543 20 2.5V18.5C20 19.6046 19.1046 20.5 18 20.5H2C0.895431 20.5 0 19.6046 0 18.5V2.5Z" fill="#595959"/>
<path d="M13.3978 10.1628L7.36027 5.44719C7.34449 5.43477 7.32553 5.42705 7.30557 5.42492C7.2856 5.42279 7.26544 5.42633 7.2474 5.43514C7.22936 5.44395 7.21417 5.45768 7.20357 5.47473C7.19298 5.49179 7.18741 5.51149 7.1875 5.53156V6.56683C7.1875 6.63246 7.2183 6.6954 7.2692 6.73558L12.0906 10.5003L7.2692 14.265C7.21697 14.3052 7.1875 14.3682 7.1875 14.4338V15.4691C7.1875 15.5588 7.29063 15.6083 7.36027 15.5534L13.3978 10.8378C13.4491 10.7978 13.4906 10.7466 13.5191 10.6881C13.5477 10.6296 13.5625 10.5654 13.5625 10.5003C13.5625 10.4352 13.5477 10.371 13.5191 10.3125C13.4906 10.254 13.4491 10.2028 13.3978 10.1628Z" fill="white"/>
<path d="M0.5 2.5C0.5 1.67157 1.17157 1 2 1H18C18.8284 1 19.5 1.67157 19.5 2.5V18.5C19.5 19.3284 18.8284 20 18 20H2C1.17157 20 0.5 19.3284 0.5 18.5V2.5Z" stroke="#595959"/>
</g>
<defs>
<filter id="filter0_d" x="0" y="0.5" width="20" height="22" filterUnits="userSpaceOnUse" color-interpolation-filters="sRGB">
<feFlood flood-opacity="0" result="BackgroundImageFix"/>
<feColorMatrix in="SourceAlpha" type="matrix" values="0 0 0 0 0 0 0 0 0 0 0 0 0 0 0 0 0 0 127 0" result="hardAlpha"/>
<feOffset dy="2"/>
<feColorMatrix type="matrix" values="0 0 0 0 0 0 0 0 0 0 0 0 0 0 0 0 0 0 0.043 0"/>
<feBlend mode="normal" in2="BackgroundImageFix" result="effect1_dropShadow"/>
<feBlend mode="normal" in="SourceGraphic" in2="effect1_dropShadow" result="shape"/>
</filter>
</defs>
</svg>
