<svg width="24" height="24" viewBox="0 0 24 24" fill="none" xmlns="http://www.w3.org/2000/svg">
<path d="M19.5171 14.1883C18.5136 13.8088 17.8424 12.8976 17.7666 11.8108C17.6924 10.7518 18.2114 9.81131 19.1549 9.29456L19.9394 8.86481L19.3791 8.16731C18.4379 6.99506 17.0909 6.29456 15.7761 6.29456C14.8649 6.29456 14.2326 6.53306 13.7249 6.72506C13.3664 6.86081 13.0836 6.96731 12.7731 6.96731C12.4191 6.96731 12.0696 6.84281 11.6646 6.69881C11.1336 6.50981 10.5321 6.29531 9.75963 6.29531C8.26713 6.29531 6.76188 7.18631 5.83188 8.61881C4.44363 10.7556 4.82463 14.4193 6.73788 17.3308C7.49613 18.4843 8.55888 19.8096 10.0641 19.8231C10.0739 19.8231 10.0836 19.8231 10.0934 19.8231C11.3256 19.8231 11.5956 19.1661 12.7919 19.1586C14.0984 19.2201 14.2634 19.8283 15.4836 19.8201C16.9544 19.8066 18.0149 18.4918 18.8579 17.2071C19.3559 16.4518 19.5486 16.0566 19.9364 15.1986L20.2649 14.4711L19.5171 14.1883Z" fill="#141414"/>
<path d="M14.8266 4.4105C15.3141 3.785 15.6839 2.90225 15.5496 2C14.7531 2.05475 13.8231 2.561 13.2794 3.221C12.7859 3.82025 12.3786 4.70825 12.5369 5.57225C13.4054 5.59925 14.3046 5.08025 14.8266 4.4105Z" fill="#141414"/>
</svg>
