<?xml version="1.0" encoding="UTF-8"?>
<svg width="669px" height="54px" viewBox="0 0 669 54" version="1.1" xmlns="http://www.w3.org/2000/svg" xmlns:xlink="http://www.w3.org/1999/xlink">
    <title>devtalents_logo.svg</title>
    <defs>
        <polygon id="path-1" points="0 5.68434189e-14 61.4708009 5.68434189e-14 61.4708009 53.8557 0 53.8557"></polygon>
    </defs>
    <g id="Page-1" stroke="none" stroke-width="1" fill="none" fill-rule="evenodd">
        <g id="devtalents_logo.svg">
            <g id="Group-15" transform="translate(607.530051, 0.000000)">
                <mask id="mask-2" fill="white">
                    <use xlink:href="#path-1"></use>
                </mask>
                <g id="Clip-14"></g>
                <path d="M52.6770494,25.226 C49.7620494,24.307 46.9830494,23.719 44.4190494,23.479 C38.6350494,22.938 12.4580494,20.975 12.4580494,20.975 L12.4580494,9.796 L58.0990494,9.796 L58.0990494,0.004 C58.0990494,0.004 29.1600494,0.105 21.3450494,0.004 C21.1570494,0.002 20.9680494,5.68434189e-14 20.7800494,5.68434189e-14 C16.0260494,5.68434189e-14 11.9040494,5.68434189e-14 7.64904941,2.115 C3.45504941,4.2 1.10504941,7.258 0.330049411,11.681 C0.0380494108,13.344 -0.0609505892,15.096 0.0360494108,16.886 C0.369049411,23.015 3.46404941,26.906 9.08804941,28.71 C11.1520494,29.372 12.7970494,29.774 14.2860494,29.909 C20.0760494,30.432 49.0300494,32.626 49.0300494,32.626 L49.0300494,44.036 L0.999049411,44.036 L0.999049411,52.32 C1.09704941,52.334 0.901049411,53.847 0.999049411,53.856 L34.7600494,53.856 C35.8050494,53.856 36.8490494,53.852 37.8940494,53.843 C43.3240494,53.801 47.4200494,53.294 51.1770494,52.201 C57.0770494,50.482 60.2330494,47.367 61.1070494,42.399 C61.4160494,40.644 61.5310494,38.755 61.4410494,36.934 C61.1400494,30.905 58.1920494,26.965 52.6770494,25.226" id="Fill-13" fill="#000000" mask="url(#mask-2)"></path>
            </g>
            <path d="M200.3098,1.1587 C198.1688,1.1587 196.4318,1.1427 194.8448,1.1107 L194.7708,1.1107 C194.2898,1.1107 194.2288,1.1107 193.9648,1.6907 C188.4238,13.9007 182.7518,26.2967 177.2678,38.2857 L174.7358,43.8187 C174.5798,44.1597 174.4008,44.4897 174.1748,44.9017 C174.0658,45.0987 173.9468,45.3167 173.8128,45.5687 L172.4928,48.0527 L170.9468,44.7847 C170.7528,44.3787 170.5988,44.0547 170.4518,43.7277 L167.6438,37.4667 C162.2628,25.4697 156.8828,13.4727 151.5278,1.4657 C151.4198,1.2237 151.3538,1.1487 151.3568,1.1457 C151.3408,1.1417 151.2588,1.1167 151.0278,1.1167 L151.0238,1.1167 C148.9308,1.1447 146.8368,1.1517 144.7438,1.1517 L138.6168,1.1457 L143.2068,11.1447 C149.5368,24.9317 155.8678,38.7187 162.1778,52.5147 C162.2138,52.5917 162.2418,52.6407 162.2598,52.6687 C162.3058,52.6767 162.3948,52.6847 162.5578,52.6847 L162.5588,52.6847 C165.8178,52.6687 169.0788,52.6577 172.3378,52.6577 C175.5438,52.6577 178.7488,52.6677 181.9528,52.6907 L181.9758,52.6907 C182.1928,52.6907 182.2798,52.6667 182.2888,52.6667 L182.2898,52.6667 C182.3008,52.6547 182.3698,52.5827 182.4848,52.3367 C188.7138,39.0107 194.9658,25.6957 201.2168,12.3787 L206.4908,1.1427 C205.5498,1.1437 204.6088,1.1477 203.6688,1.1497 C202.5488,1.1547 201.4288,1.1587 200.3098,1.1587" id="Fill-16" fill="#000000"></path>
            <polygon id="Fill-18" fill="#000000" points="350.3294 1.2091 338.8924 1.2091 338.8924 52.5781 390.0674 52.5781 390.0674 42.8791 350.3294 42.8791"></polygon>
            <path d="M286.5491,31.8525 L296.5491,9.9835 C296.7051,9.6425 296.8861,9.3125 297.1121,8.8995 C297.2201,8.7025 297.3401,8.4845 297.4731,8.2325 L298.7931,5.7505 L300.3311,9.0005 C300.5291,9.4135 300.6861,9.7425 300.8341,10.0755 L310.6001,31.8525 L286.5491,31.8525 Z M309.1081,1.2865 C309.0731,1.2095 309.0451,1.1615 309.0271,1.1325 C308.9811,1.1265 308.8921,1.1165 308.7281,1.1165 C305.4541,1.1325 302.1781,1.1435 298.9051,1.1435 C295.7141,1.1435 292.5231,1.1335 289.3071,1.1105 C289.0941,1.1105 289.0071,1.1345 288.9971,1.1345 C288.9841,1.1465 288.9161,1.2195 288.8011,1.4645 C282.5731,14.7895 276.3221,28.1035 270.0711,41.4185 L264.7951,52.6585 C265.7291,52.6565 266.6641,52.6545 267.5981,52.6505 C268.7101,52.6465 269.8231,52.6425 270.9351,52.6425 C273.0951,52.6425 274.8441,52.6585 276.4401,52.6905 L276.5141,52.6915 C276.9961,52.6915 277.0581,52.6915 277.3221,52.1105 C278.4891,49.5375 279.6621,46.9665 280.8351,44.3965 L282.7181,40.2635 L314.3601,40.2635 L316.3131,44.6295 C317.4631,47.1975 318.6131,49.7655 319.7581,52.3355 C319.8661,52.5765 319.9321,52.6515 319.9291,52.6555 C319.9461,52.6615 320.0281,52.6835 320.2591,52.6835 L320.2621,52.6835 C322.3301,52.6565 324.3991,52.6495 326.4681,52.6495 L332.6681,52.6555 L327.9031,42.2755 C321.6321,28.6165 315.3601,14.9565 309.1081,1.2865 L309.1081,1.2865 Z" id="Fill-20" fill="#000000"></path>
            <polygon id="Fill-22" fill="#000000" points="455.4283 10.414 455.4283 1.223 418.9963 1.223 418.9963 1.221 409.1643 1.221 409.1643 10.414 418.9963 10.414"></polygon>
            <polygon id="Fill-24" fill="#000000" points="409.1407 31.0584 443.0637 31.0584 443.0637 22.6474 409.1647 22.6474 409.1647 10.4134 397.6197 10.4134 397.6197 52.5814 456.4227 52.5814 456.4227 43.2944 409.1407 43.2944"></polygon>
            <polygon id="Fill-26" fill="#000000" points="279.9831 1.2062 249.1421 1.2062 249.1421 10.8332 237.5561 10.8332 237.5561 52.5712 249.1851 52.5712 249.1851 10.8332 275.3201 10.8332"></polygon>
            <path d="M517.4796,47.0445 L515.3426,47.0445 L487.1716,1.6295 C486.8956,1.1885 486.7746,1.1215 486.2236,1.1215 C482.5786,1.1425 478.9336,1.1475 475.2876,1.1475 L464.8976,1.1425 L464.8976,52.6025 L475.8256,52.6025 L475.8256,8.2215 L475.8256,7.4395 L478.1066,7.4395 L478.9676,8.7045 C479.1656,8.9935 479.3656,9.2815 479.5506,9.5795 L482.9976,15.0785 C487.7996,22.7435 492.5926,30.4135 497.3886,38.0815 L506.5176,52.5875 C506.6246,52.6745 506.7406,52.6905 506.9696,52.6905 L506.9886,52.6905 C510.7046,52.6675 514.4196,52.6615 518.1366,52.6615 L528.4816,52.6665 L528.4816,1.2555 L517.4796,1.2555 L517.4796,47.0445 Z" id="Fill-28" fill="#000000"></path>
            <polygon id="Fill-30" fill="#000000" points="75.7888 43.446 87.3328 43.446 87.3328 31.212 121.2328 31.212 121.2328 22.801 87.3088 22.801 87.3088 10.566 134.5918 10.566 134.5918 1.279 75.7888 1.279"></polygon>
            <polygon id="Fill-32" fill="#000000" points="133.5974 52.6373 133.5974 43.4463 97.1654 43.4463 87.3334 43.4463 87.3334 52.6373"></polygon>
            <polygon id="Fill-34" fill="#000000" points="232.9129 1.2203 227.7239 1.2203 222.8179 1.2203 222.8179 1.1513 210.8189 1.1513 210.8189 10.8323 222.8179 10.8323 227.7239 10.8323 237.5559 10.8323 237.5559 1.2203"></polygon>
            <polygon id="Fill-36" fill="#000000" points="563.9032 1.2518 537.0192 1.2518 537.0192 10.8838 563.9032 10.8838 563.9032 52.5908 575.5112 52.5908 575.5112 10.7528 563.9032 10.7528"></polygon>
            <polygon id="Fill-38" fill="#000000" points="575.5116 10.7527 602.3226 10.7527 602.3226 1.2517 575.5116 1.2517"></polygon>
            <path d="M47.512,1.1584 L11.545,1.1584 L11.545,11.0314 L29.228,11.0314 L45.266,11.0314 L53.784,11.0314 L53.784,20.5394 L53.784,33.3154 L53.784,42.8244 L45.266,42.8244 L29.228,42.8244 L11.545,42.8244 L11.545,11.0314 L0,11.0314 L0,52.6974 L47.512,52.6974 C58.216,52.6974 66.893,44.0194 66.893,33.3154 L66.893,20.5394 C66.893,9.8354 58.216,1.1584 47.512,1.1584" id="Fill-40" fill="#000000"></path>
        </g>
    </g>
</svg>