<?xml version="1.0" encoding="iso-8859-1"?>
<!-- Generator: Adobe Illustrator 19.0.0, SVG Export Plug-In . SVG Version: 6.00 Build 0)  -->
<svg version="1.1" id="Layer_1"
	xmlns="http://www.w3.org/2000/svg"
	xmlns:xlink="http://www.w3.org/1999/xlink" x="0px" y="0px" viewBox="0 0 508 508" style="enable-background:new 0 0 508 508;" xml:space="preserve">
	<circle style="fill:#FFD05B;" cx="254" cy="254" r="254"/>
	<path style="fill:#324A5E;" d="M394,258.8V288c-2.4-0.4-4.8-0.4-7.2-0.4c-3.6,0-7.2,0.4-10.4,1.2v-29.6H262.8v29.6
	c-2.8-0.4-6-0.8-8.8-0.8c-3.2,0-6,0.4-8.8,0.8v-29.6H131.6v29.6c-3.2-0.8-6.8-1.2-10.4-1.2c-2.4,0-4.8,0-7.2,0.4v-29.2
	c0-10,8-18,17.6-18h113.2V210h18v30.8H376C386,240.8,394,248.8,394,258.8z"/>
	<g>
		<path style="fill:#FFFFFF;" d="M335.2,210H172.8c-5.6,0-10-4.4-10-10v-60.4c0-5.6,4.4-10,10-10h162c5.6,0,10,4.4,10,10V200
		C345.2,205.6,340.8,210,335.2,210z"/>
		<circle style="fill:#FFFFFF;" cx="254" cy="332.8" r="45.6"/>
		<circle style="fill:#FFFFFF;" cx="386.8" cy="332.8" r="45.6"/>
		<circle style="fill:#FFFFFF;" cx="121.2" cy="332.8" r="45.6"/>
	</g>
	<circle style="fill:#84DBFF;" cx="121.2" cy="332.8" r="31.6"/>
	<circle style="fill:#FF7058;" cx="254" cy="332.8" r="31.6"/>
	<circle style="fill:#FFD05B;" cx="386.8" cy="332.8" r="31.6"/>
	<g>
	</g>
	<g>
	</g>
	<g>
	</g>
	<g>
	</g>
	<g>
	</g>
	<g>
	</g>
	<g>
	</g>
	<g>
	</g>
	<g>
	</g>
	<g>
	</g>
	<g>
	</g>
	<g>
	</g>
	<g>
	</g>
	<g>
	</g>
	<g>
	</g>
	<g>
	</g>
</svg>
